<svg width="160" height="160" viewBox="0 0 160 160" xmlns="http://www.w3.org/2000/svg" fill="none">
  <!-- Outer Shield -->
  <path
    d="M80 10
       L128 28
       L134 70
       C134 110, 100 135, 80 145
       C60 135, 26 110, 26 70
       L32 28
       L80 10 Z"
    stroke="white"
    stroke-width="4"
    fill="none"
  />

  <!-- Inner Shield -->
  <path
    d="M80 20
       L118 36
       L124 72
       C124 105, 95 125, 80 135
       C65 125, 36 105, 36 72
       L42 36
       L80 20 Z"
    stroke="white"
    stroke-width="2"
    opacity="0.4"
    fill="none"
  />

  <!-- Key Head: Shield-shaped -->
  <path d="M72 48 L88 48 L84 54 C83 56, 77 56, 76 54 L72 48 Z" stroke="white" stroke-width="2" fill="none" />

  <!-- Key Shaft -->
  <line x1="80" y1="58" x2="80" y2="112" stroke="white" stroke-width="3" />

  <!-- Key Teeth -->
  <path d="M74 92 h12 v5 h-12 Z" fill="white" />
  <path d="M76 100 h3 v4 h-3 Z" fill="white" />
  <path d="M81 100 h3 v4 h-3 Z" fill="white" />
  <path d="M80 106 h8 v4 h-8 Z" fill="white" />
</svg>
